<?xml version="1.0" encoding="UTF-8" standalone="no"?>
<svg width="35px" height="35px" viewBox="0 0 35 35" version="1.1" xmlns="http://www.w3.org/2000/svg" xmlns:xlink="http://www.w3.org/1999/xlink" xmlns:sketch="http://www.bohemiancoding.com/sketch/ns">
    <!-- Generator: Sketch 3.3.3 (12081) - http://www.bohemiancoding.com/sketch -->
    <title>Icon/Seek icons/Circle - attention Copy 6</title>
    <desc>Created with Sketch.</desc>
    <defs></defs>
    <g id="confirmation-states" stroke="none" stroke-width="1" fill="none" fill-rule="evenodd" sketch:type="MSPage">
        <g id="missing-or-invalid-fields" sketch:type="MSArtboardGroup" transform="translate(-258.000000, -634.000000)" fill="#FFFFFF">
            <g id="product-photo" sketch:type="MSLayerGroup">
                <g id="Icon/Seek-icons/Circle---attention-Copy-6" transform="translate(258.000000, 634.000000)" sketch:type="MSShapeGroup">
                    <path d="M17.4115083,0.463 C19.7126564,0.463 21.8873794,0.89964444 23.9356775,1.77399571 C25.9829131,2.64728459 27.7751738,3.84247923 29.3135221,5.35957962 C30.8518704,6.87561761 32.0746873,8.65194244 32.9819728,10.6885541 C33.8892584,12.7241034 34.3535251,14.9052008 34.3768978,17.2286591 C34.420456,19.5744278 34.0114338,21.7873971 33.1487689,23.8686293 C32.2850416,25.9487992 31.0951589,27.7633702 29.5791209,29.3134049 C28.0630829,30.8623771 26.2761341,32.095818 24.2172122,33.0158523 C22.1593526,33.9326993 19.9570073,34.4139644 17.6112386,34.4596474 L17.5113735,34.4596474 L17.4115083,34.4596474 C15.08805,34.4596474 12.9016406,34.0219405 10.854405,33.1486517 C8.80716937,32.273238 7.01384622,31.0780434 5.47656032,29.5630678 C3.93714963,28.0459674 2.71433272,26.2696425 1.80810959,24.2340933 C0.899761668,22.1974816 0.435494952,20.0174466 0.413184652,17.6939882 C0.369626448,15.3471572 0.778648611,13.1341879 1.64131354,11.0540181 C2.50504086,8.9727858 3.69386112,7.15290277 5.21096151,5.59224417 C6.72593711,4.03158558 8.51394829,2.79177035 10.5728702,1.87386087 C12.6307298,0.954888992 14.8320127,0.484247905 17.1788438,0.463 L17.2787089,0.463 L17.4115083,0.463 L17.4115083,0.463 Z M17.413,3.338 L17.304,3.338 L17.226,3.338 C16.267,3.358 15.329,3.468 14.413,3.666 C13.496,3.863 12.601,4.15 11.726,4.525 C10.892,4.879 10.106,5.316 9.366,5.838 C8.626,6.358 7.934,6.952 7.288,7.619 C6.642,8.265 6.069,8.968 5.569,9.729 C5.069,10.488 4.652,11.296 4.319,12.15 C3.965,13.025 3.699,13.921 3.523,14.838 C3.345,15.754 3.267,16.691 3.288,17.65 C3.288,18.588 3.387,19.515 3.585,20.432 C3.782,21.348 4.069,22.233 4.444,23.088 C4.798,23.921 5.231,24.707 5.741,25.447 C6.251,26.187 6.829,26.879 7.476,27.525 C8.121,28.15 8.819,28.713 9.569,29.213 C10.319,29.713 11.11,30.14 11.944,30.494 C12.819,30.848 13.71,31.119 14.616,31.307 C15.523,31.494 16.454,31.588 17.413,31.588 L17.491,31.588 L17.601,31.588 C18.538,31.566 19.465,31.457 20.382,31.26 C21.298,31.062 22.194,30.775 23.069,30.4 C23.902,30.025 24.694,29.582 25.444,29.072 C26.194,28.562 26.882,27.973 27.507,27.307 C28.152,26.64 28.726,25.932 29.226,25.182 C29.726,24.432 30.142,23.629 30.476,22.775 C30.829,21.9 31.095,21.004 31.273,20.088 C31.449,19.171 31.527,18.233 31.507,17.275 C31.507,16.316 31.407,15.385 31.21,14.479 C31.012,13.572 30.726,12.691 30.351,11.838 C29.996,11.004 29.564,10.218 29.054,9.479 C28.543,8.738 27.965,8.046 27.319,7.4 C26.673,6.775 25.976,6.213 25.226,5.713 C24.476,5.213 23.684,4.785 22.851,4.432 C21.976,4.077 21.085,3.807 20.179,3.619 C19.273,3.432 18.351,3.338 17.413,3.338 L17.413,3.338 Z M16.413,20.963 L19.413,20.963 L19.413,8.963 L16.413,8.963 L16.413,20.963 Z M16.413,25.963 L19.413,25.963 L19.413,22.963 L16.413,22.963 L16.413,25.963 Z" id="Icon/Seek-icons/Circle---attention"></path>
                </g>
            </g>
        </g>
    </g>
</svg>