<?xml version="1.0" encoding="UTF-8" standalone="no"?>
<svg width="420px" height="312px" viewBox="0 0 420 312" version="1.1" xmlns="http://www.w3.org/2000/svg" xmlns:xlink="http://www.w3.org/1999/xlink" xmlns:sketch="http://www.bohemiancoding.com/sketch/ns">
    <!-- Generator: Sketch 3.3.3 (12081) - http://www.bohemiancoding.com/sketch -->
    <title>MINTY NINJA</title>
    <desc>Created with Sketch.</desc>
    <defs></defs>
    <g id="User-actions" stroke="none" stroke-width="1" fill="none" fill-rule="evenodd" sketch:type="MSPage">
        <g id="Extra-Large" sketch:type="MSArtboardGroup" transform="translate(-260.000000, -1158.000000)" fill="#FFFFFF">
            <g id="Say-hello-to..." sketch:type="MSLayerGroup" transform="translate(0.000000, 1080.000000)">
                <g id="MINTY-NINJA" transform="translate(259.000000, 78.000000)" sketch:type="MSShapeGroup">
                    <g id="INTY-+-M-+-NINJA" transform="translate(0.000000, 70.000000)">
                        <path d="M123.504883,49.0615234 C122.404617,43.7717834 120.458022,38.0166327 117.665039,31.7958984 C114.872056,25.5751642 112.650399,20.9202628 111,17.8310547 L149.974609,3.80273438 C150.059245,4.60677485 150.196776,6.33120422 150.387207,8.97607422 C150.577638,11.6209442 150.736327,14.6148921 150.863281,17.9580078 C150.990235,21.3011235 151.053711,24.644189 151.053711,27.9873047 C151.053711,38.4821488 150.44011,47.0725577 149.212891,53.7587891 C147.39322,64.338269 144.346376,73.489382 140.072266,81.2124023 C135.798156,88.9354227 131.862648,94.6905735 128.265625,98.4780273 C124.668602,102.265481 122.023771,104.77278 120.331055,106 C120.669598,104.476555 121.187985,101.821145 121.88623,98.0336914 C122.584476,94.2462376 123.282711,89.3691705 123.980957,83.4023438 C124.679203,77.435517 125.02832,71.5322558 125.02832,65.6923828 C125.02832,59.1331052 124.520513,53.5895409 123.504883,49.0615234 L123.504883,49.0615234 Z M212.37207,72.7382812 C208.267232,65.0787377 204.289407,59.2177937 200.438477,55.1552734 C197.51854,52.1083832 194.514013,49.4212356 191.424805,47.09375 C191.340169,48.151698 191.128582,49.7597548 190.790039,51.9179688 C189.393548,59.9583735 187.055518,67.4062157 183.775879,74.2617188 C180.49624,81.1172218 177.132016,86.756 173.683105,91.1782227 C170.234195,95.6004453 167.293144,98.9435108 164.859863,101.20752 C162.426583,103.471528 160.680995,104.984371 159.623047,105.746094 C160.215498,103.799469 161.083002,100.456404 162.225586,95.7167969 C163.36817,90.9771898 164.521316,84.9787147 165.685059,77.7211914 C166.848801,70.4636681 167.430664,63.7246405 167.430664,57.5039062 C167.430664,54.2454264 167.155602,50.8177263 166.605469,47.2207031 C166.097654,44.1738129 165.177253,40.9153819 163.844238,37.4453125 C162.511224,33.9752431 161.01954,30.6956535 159.369141,27.6064453 C157.507152,26.6754511 155.962571,25.9666365 154.735352,25.4799805 C153.508132,24.9933244 152.661786,24.6653654 152.196289,24.4960938 C152.534832,24.4537758 153.010902,24.4220379 153.624512,24.4008789 C154.238122,24.3797199 155.539378,24.3691406 157.52832,24.3691406 C156.597326,22.6764238 155.634608,21.0048911 154.640137,19.3544922 C153.645666,17.7040933 152.95801,16.6038439 152.577148,16.0537109 L188.441406,2.78710938 C188.610678,3.59114985 188.89632,5.08283416 189.29834,7.26220703 C189.70036,9.44157991 190.123533,12.3614726 190.567871,16.0219727 C191.012209,19.6824727 191.340168,23.3746559 191.551758,27.0986328 C200.8617,28.7913496 208.246066,31.5208145 213.705078,35.2871094 C215.651702,29.2356468 218.233057,23.7026618 221.449219,18.6879883 C224.665381,13.6733148 227.500639,9.83302114 229.955078,7.16699219 C232.409517,4.50096323 234.186843,2.70247861 235.287109,1.77148438 C234.483069,4.73373877 233.478033,9.57906792 232.271973,16.3076172 C231.065912,23.0361665 230.462891,30.1454704 230.462891,37.6357422 C230.462891,45.4222395 231.41503,52.0872119 233.319336,57.6308594 C237.29722,63.6823219 240.492175,69.3528381 242.904297,74.6425781 C245.528008,78.2819192 247.823721,81.3181844 249.791504,83.7514648 C251.759287,86.1847452 253.208654,87.9303333 254.139648,88.9882812 L225.638672,107.142578 C224.115227,104.307277 221.957045,99.6629554 219.164062,93.2094727 C216.37108,86.7559899 214.107105,79.9323276 212.37207,72.7382812 L212.37207,72.7382812 Z M291.146484,36.1757812 C290.173172,36.2604171 288.692067,36.3027344 286.703125,36.3027344 C280.228483,36.3027344 273.743359,35.6679751 267.247559,34.3984375 C260.751758,33.1288999 255.980484,32.0709678 252.933594,31.2246094 L268.358398,5.89746094 C270.474294,6.91309102 273.912574,8.36245803 278.67334,10.2456055 C283.434106,12.1287529 288.459283,13.6627545 293.749023,14.8476562 C294.214521,10.1926851 294.510742,6.81788157 294.637695,4.72314453 C294.764649,2.6284075 294.849284,1.07324727 294.891602,0.0576171875 C295.145509,0.523114307 295.568682,1.41177729 296.161133,2.72363281 C296.753584,4.03548833 297.642247,6.04555937 298.827148,8.75390625 C300.01205,11.4622531 301.006506,13.8531797 301.810547,15.9267578 L302.445312,15.9267578 C312.855521,15.9267578 322.334593,15.1544674 330.882812,13.6098633 C339.431032,12.0652592 345.503563,10.7851613 349.100586,9.76953125 C345.461245,12.2239706 339.695515,15.7680432 331.803223,20.4018555 C323.910931,25.0356677 315.81775,28.9182786 307.523438,32.0498047 C308.49675,34.9697412 309.332516,37.8367372 310.030762,40.6508789 C310.729007,43.4650206 311.279132,46.1839062 311.681152,48.8076172 C312.083173,51.4313282 312.305338,53.8222548 312.347656,55.9804688 C312.347656,60.8893475 311.554207,66.2213254 309.967285,71.9765625 C308.380363,77.7317996 306.528982,83.0426189 304.413086,87.9091797 C302.29719,92.7757405 300.466967,96.711248 298.922363,99.7158203 C297.377759,102.720393 296.245772,104.815098 295.526367,106 L266.200195,91.3369141 C266.750328,90.7867811 267.66015,89.7817456 268.929688,88.3217773 C270.199225,86.8618091 271.881337,84.6718896 273.976074,81.7519531 C276.070811,78.8320167 278.250151,75.2667854 280.51416,71.0561523 C282.778169,66.8455193 284.714185,62.2858318 286.322266,57.3769531 C288.141936,51.9602594 289.749993,44.8932728 291.146484,36.1757812 L291.146484,36.1757812 Z M378.617188,59.4716797 C375.570297,57.4404195 372.87257,55.3562932 370.523926,53.2192383 C368.175281,51.0821833 365.985362,48.6172015 363.954102,45.8242188 C357.860321,37.1913631 353.797862,28.8019613 351.766602,20.6557617 C349.735341,12.5095621 348.635092,6.59572153 348.46582,2.9140625 C349.439132,4.35287178 351.269355,6.86017092 353.956543,10.4360352 C356.643731,14.0118994 360.198383,18.2224693 364.620605,23.0678711 C369.042828,27.9132729 373.835261,32.4094845 378.998047,36.5566406 C383.102885,39.8574384 387.821262,42.2906823 393.15332,43.8564453 C397.131205,38.735977 400.908022,33.4886336 404.483887,28.1142578 C408.059751,22.739882 410.926747,18.2542498 413.084961,14.6572266 C415.243175,11.0602034 416.745438,8.52116626 417.591797,7.04003906 C417.380207,8.3942125 416.925296,10.8591944 416.227051,14.4350586 C415.528805,18.0109228 414.449714,22.6869828 412.989746,28.4633789 C411.529778,34.239775 409.78419,39.9843464 407.75293,45.6972656 C410.122733,45.6126298 412.19628,45.4010434 413.973633,45.0625 C415.750985,44.7239566 416.957028,44.4488943 417.591797,44.2373047 L402.801758,70.2626953 C402.336261,70.2626953 400.516617,69.691412 397.342773,68.5488281 C394.97297,72.6959843 392.370457,76.4199054 389.535156,79.7207031 C385.980451,83.9524951 381.600612,88.0784304 376.395508,92.0986328 C371.190404,96.1188352 366.694192,99.2926316 362.906738,101.620117 C359.119284,103.947603 356.37924,105.576818 354.686523,106.507812 L336.786133,76.8642578 C340.848653,76.1871711 346.942342,74.5473763 355.067383,71.9448242 C363.192423,69.3422721 370.703742,65.4385026 377.601562,60.2333984 C378.109378,59.8948551 378.447916,59.6409514 378.617188,59.4716797 L378.617188,59.4716797 Z" id="INTY"></path>
                        <path d="M70.8242188,29.3203125 C70.9934904,32.9596536 71.078125,35.7737531 71.078125,37.7626953 C71.078125,43.1793891 70.6761108,48.1516701 69.8720703,52.6796875 C68.475579,60.7200923 66.137549,68.1679345 62.8579102,75.0234375 C59.5782714,81.8789405 56.2140472,87.5177188 52.7651367,91.9399414 C49.3162262,96.362164 46.3751749,99.7052296 43.9418945,101.969238 C41.5086141,104.233247 39.7630261,105.74609 38.7050781,106.507812 C39.297529,104.561188 40.1650333,101.218123 41.3076172,96.4785156 C42.450201,91.7389086 43.603347,85.7404334 44.7670898,78.4829102 C45.9308326,71.2253869 46.5126953,64.4863592 46.5126953,58.265625 C46.5126953,54.7109197 46.2587916,51.3043783 45.7509766,48.0458984 C44.9469361,43.517881 43.2542447,38.5244414 40.6728516,33.0654297 L40.6728516,37.0009766 C40.6728516,41.9944911 40.2708374,46.9667721 39.4667969,51.9179688 C38.0703055,59.9583735 35.7322755,67.4062157 32.4526367,74.2617188 C29.1729979,81.1172218 25.8087738,86.756 22.3598633,91.1782227 C18.9109528,95.6004453 15.9699015,98.9435108 13.5366211,101.20752 C11.1033407,103.471528 9.35775269,104.984371 8.29980469,105.746094 C8.89225557,103.799469 9.75975991,100.456404 10.9023438,95.7167969 C12.0449276,90.9771898 13.1980736,84.9787147 14.3618164,77.7211914 C15.5255592,70.4636681 16.1074219,63.7246405 16.1074219,57.5039062 C16.1074219,54.2454264 15.8323595,50.8177263 15.2822266,47.2207031 C14.4358682,41.6770556 12.3834798,35.8478496 9.125,29.7329102 C5.86652017,23.6179707 3.24284849,19.0582833 1.25390625,16.0537109 L37.1181641,2.78710938 C37.2874357,3.54883193 37.5413395,4.88182642 37.8798828,6.78613281 C38.2184262,8.69043921 38.6204404,11.1236831 39.0859375,14.0859375 L67.5869141,3.54882812 C67.7561857,4.26823276 68.0206688,5.71759978 68.3803711,7.89697266 C68.7400734,10.0763455 69.0680324,12.3508996 69.3642578,14.7207031 L99.515625,3.54882812 C99.6848967,4.26823276 99.9388004,5.61180657 100.277344,7.57958984 C100.615887,9.54737312 100.996743,12.0758309 101.419922,15.1650391 C101.843101,18.2542472 102.223957,21.6819473 102.5625,25.4482422 C102.901043,29.2145371 103.070312,33.3193137 103.070312,37.7626953 C103.070312,43.1793891 102.668298,48.1516701 101.864258,52.6796875 C100.467766,60.7200923 98.1297365,68.1679345 94.8500977,75.0234375 C91.5704589,81.8789405 88.2062347,87.5177188 84.7573242,91.9399414 C81.3084137,96.362164 78.3673624,99.7052296 75.934082,101.969238 C73.5008016,104.233247 71.7552136,105.74609 70.6972656,106.507812 C71.2897165,104.561188 72.1572208,101.218123 73.2998047,96.4785156 C74.4423885,91.7389086 75.5955345,85.7404334 76.7592773,78.4829102 C77.9230201,71.2253869 78.5048828,64.4863592 78.5048828,58.265625 C78.5048828,54.583966 78.2298205,51.1774245 77.6796875,48.0458984 C76.9602829,43.0947018 74.6751495,36.8529022 70.8242188,29.3203125 L70.8242188,29.3203125 Z" id="M"></path>
                        <path d="M61.0488281,206.738281 C56.9439899,199.078738 52.9661651,193.217794 49.1152344,189.155273 C46.1952979,186.108383 43.1907707,183.421236 40.1015625,181.09375 C40.0169267,182.151698 39.8053402,183.759755 39.4667969,185.917969 C38.0703055,193.958374 35.7322755,201.406216 32.4526367,208.261719 C29.1729979,215.117222 25.8087738,220.756 22.3598633,225.178223 C18.9109528,229.600445 15.9699015,232.943511 13.5366211,235.20752 C11.1033407,237.471528 9.35775269,238.984371 8.29980469,239.746094 C8.89225557,237.799469 9.75975991,234.456404 10.9023438,229.716797 C12.0449276,224.97719 13.1980736,218.978715 14.3618164,211.721191 C15.5255592,204.463668 16.1074219,197.72464 16.1074219,191.503906 C16.1074219,188.245426 15.8323595,184.817726 15.2822266,181.220703 C14.7744115,178.173813 13.8540106,174.915382 12.5209961,171.445312 C11.1879816,167.975243 9.69629731,164.695653 8.04589844,161.606445 C6.18390996,160.675451 4.63932905,159.966637 3.41210938,159.47998 C2.1848897,158.993324 1.33854399,158.665365 0.873046875,158.496094 C1.21159023,158.453776 1.68765969,158.422038 2.30126953,158.400879 C2.91487937,158.37972 4.21613589,158.369141 6.20507812,158.369141 C5.27408389,156.676424 4.31136565,155.004891 3.31689453,153.354492 C2.32242341,151.704093 1.63476753,150.603844 1.25390625,150.053711 L37.1181641,136.787109 C37.2874357,137.59115 37.5730774,139.082834 37.9750977,141.262207 C38.3771179,143.44158 38.8002907,146.361473 39.2446289,150.021973 C39.6889671,153.682473 40.016926,157.374656 40.2285156,161.098633 C49.538458,162.79135 56.9228243,165.520815 62.3818359,169.287109 C64.3284603,163.235647 66.9098146,157.702662 70.1259766,152.687988 C73.3421385,147.673315 76.1773966,143.833021 78.6318359,141.166992 C81.0862753,138.500963 82.8636013,136.702479 83.9638672,135.771484 C83.1598267,138.733739 82.1547912,143.579068 80.9487305,150.307617 C79.7426698,157.036166 79.1396484,164.14547 79.1396484,171.635742 C79.1396484,179.422239 80.0917874,186.087212 81.9960938,191.630859 C85.9739782,197.682322 89.1689333,203.352838 91.5810547,208.642578 C94.2047657,212.281919 96.5004784,215.318184 98.4682617,217.751465 C100.436045,220.184745 101.885412,221.930333 102.816406,222.988281 L74.3154297,241.142578 C72.7919846,238.307277 70.633803,233.662955 67.8408203,227.209473 C65.0478376,220.75599 62.7838628,213.932328 61.0488281,206.738281 L61.0488281,206.738281 Z M114.876953,183.061523 C113.776687,177.771783 111.830092,172.016633 109.037109,165.795898 C106.244127,159.575164 104.022469,154.920263 102.37207,151.831055 L141.34668,137.802734 C141.431316,138.606775 141.568847,140.331204 141.759277,142.976074 C141.949708,145.620944 142.108398,148.614892 142.235352,151.958008 C142.362305,155.301123 142.425781,158.644189 142.425781,161.987305 C142.425781,172.482149 141.812181,181.072558 140.584961,187.758789 C138.76529,198.338269 135.718446,207.489382 131.444336,215.212402 C127.170226,222.935423 123.234719,228.690574 119.637695,232.478027 C116.040672,236.265481 113.395842,238.77278 111.703125,240 C112.041668,238.476555 112.560055,235.821145 113.258301,232.033691 C113.956546,228.246238 114.654782,223.36917 115.353027,217.402344 C116.051273,211.435517 116.400391,205.532256 116.400391,199.692383 C116.400391,193.133105 115.892583,187.589541 114.876953,183.061523 L114.876953,183.061523 Z M203.744141,206.738281 C199.639302,199.078738 195.661478,193.217794 191.810547,189.155273 C188.89061,186.108383 185.886083,183.421236 182.796875,181.09375 C182.712239,182.151698 182.500653,183.759755 182.162109,185.917969 C180.765618,193.958374 178.427588,201.406216 175.147949,208.261719 C171.86831,215.117222 168.504086,220.756 165.055176,225.178223 C161.606265,229.600445 158.665214,232.943511 156.231934,235.20752 C153.798653,237.471528 152.053065,238.984371 150.995117,239.746094 C151.587568,237.799469 152.455072,234.456404 153.597656,229.716797 C154.74024,224.97719 155.893386,218.978715 157.057129,211.721191 C158.220872,204.463668 158.802734,197.72464 158.802734,191.503906 C158.802734,188.245426 158.527672,184.817726 157.977539,181.220703 C157.469724,178.173813 156.549323,174.915382 155.216309,171.445312 C153.883294,167.975243 152.39161,164.695653 150.741211,161.606445 C148.879222,160.675451 147.334642,159.966637 146.107422,159.47998 C144.880202,158.993324 144.033856,158.665365 143.568359,158.496094 C143.906903,158.453776 144.382972,158.422038 144.996582,158.400879 C145.610192,158.37972 146.911448,158.369141 148.900391,158.369141 C147.969396,156.676424 147.006678,155.004891 146.012207,153.354492 C145.017736,151.704093 144.33008,150.603844 143.949219,150.053711 L179.813477,136.787109 C179.982748,137.59115 180.26839,139.082834 180.67041,141.262207 C181.07243,143.44158 181.495603,146.361473 181.939941,150.021973 C182.38428,153.682473 182.712239,157.374656 182.923828,161.098633 C192.233771,162.79135 199.618137,165.520815 205.077148,169.287109 C207.023773,163.235647 209.605127,157.702662 212.821289,152.687988 C216.037451,147.673315 218.872709,143.833021 221.327148,141.166992 C223.781588,138.500963 225.558914,136.702479 226.65918,135.771484 C225.855139,138.733739 224.850104,143.579068 223.644043,150.307617 C222.437982,157.036166 221.834961,164.14547 221.834961,171.635742 C221.834961,179.422239 222.7871,186.087212 224.691406,191.630859 C228.669291,197.682322 231.864246,203.352838 234.276367,208.642578 C236.900078,212.281919 239.195791,215.318184 241.163574,217.751465 C243.131357,220.184745 244.580725,221.930333 245.511719,222.988281 L217.010742,241.142578 C215.487297,238.307277 213.329116,233.662955 210.536133,227.209473 C207.74315,220.75599 205.479175,213.932328 203.744141,206.738281 L203.744141,206.738281 Z M297.5625,223.623047 C301.667338,224.511723 304.978666,225.104165 307.496582,225.400391 C310.014498,225.696616 311.865879,225.887044 313.050781,225.97168 C311.485018,227.198899 308.586284,228.775218 304.354492,230.700684 C300.1227,232.626149 294.748405,233.779295 288.231445,234.160156 C286.91959,235.387376 285.851078,236.339515 285.025879,237.016602 C284.200679,237.693688 283.618817,238.159178 283.280273,238.413086 C283.280273,238.413086 283.618812,237.037774 284.295898,234.287109 C281.333644,234.287109 278.350275,233.990888 275.345703,233.398438 C269.844374,232.425125 264.163278,230.584323 258.302246,227.875977 C252.441214,225.16763 248.071954,223.009448 245.194336,221.401367 L262.079102,201.025391 C263.856454,202.929697 266.469547,205.553369 269.918457,208.896484 C273.367368,212.2396 276.615219,214.88443 279.662109,216.831055 C282.116549,218.481454 284.761379,219.750972 287.59668,220.639648 C289.924165,207.732683 291.087891,197.597693 291.087891,190.234375 C291.087891,186.637352 290.833987,183.209652 290.326172,179.951172 C289.479813,174.576796 287.427425,168.779328 284.168945,162.558594 C280.910465,156.33786 278.286794,151.725275 276.297852,148.720703 L312.162109,135.454102 C312.75456,138.289402 313.484533,142.912566 314.352051,149.32373 C315.219568,155.734895 315.65332,162.51624 315.65332,169.667969 C315.65332,174.957709 315.272465,179.951148 314.510742,184.648438 C312.140939,198.697987 306.491581,211.689393 297.5625,223.623047 L297.5625,223.623047 Z M387.953125,187.060547 C387.191402,185.283194 386.218105,183.463551 385.033203,181.601562 C382.874989,178.004539 379.108751,173.857445 373.734375,169.160156 C367.979138,178.935596 363.789727,186.954721 361.166016,193.217773 C368.783241,192.244461 377.712188,190.192073 387.953125,187.060547 L387.953125,187.060547 Z M356.214844,212.070312 C356.214844,214.440116 356.204264,216.418449 356.183105,218.005371 C356.161947,219.592293 356.130209,221.337881 356.087891,223.242188 C356.087891,226.077488 356.172525,229.346498 356.341797,233.049316 C356.511069,236.752134 356.63802,239.280592 356.722656,240.634766 L325.111328,234.160156 C325.2806,232.594393 325.682614,229.949563 326.317383,226.225586 C326.952152,222.501609 327.819656,218.333356 328.919922,213.720703 C325.91535,213.38216 323.175305,212.980146 320.699707,212.514648 C318.224109,212.049151 316.499679,211.710613 315.526367,211.499023 L323.207031,186.298828 C324.222661,186.722007 326.063463,187.420243 328.729492,188.393555 C331.395521,189.366867 334.273097,190.276688 337.362305,191.123047 C338.928068,188.372382 340.409173,186.06609 341.805664,184.204102 C346.16441,178.618136 354.437439,171.572308 366.625,163.066406 C364.59374,161.373689 362.700041,159.871426 360.943848,158.55957 C359.187654,157.247715 357.949873,156.359052 357.230469,155.893555 L390.80957,138.500977 C391.528975,139.474289 392.671542,141.103504 394.237305,143.388672 C395.803068,145.67384 397.760242,148.953429 400.108887,153.227539 C402.457531,157.501649 404.647451,162.241185 406.678711,167.446289 C408.709971,172.651393 409.958331,177.602516 410.423828,182.299805 C410.5931,184.161793 410.677734,185.579422 410.677734,186.552734 C410.677734,193.196648 409.545747,200.369428 407.281738,208.071289 C405.01773,215.77315 402.753755,222.279433 400.489746,227.590332 C398.225737,232.901231 396.543625,236.65689 395.443359,238.857422 C395.527995,238.857422 395.570312,237.376317 395.570312,234.414062 C395.570312,230.774721 395.432781,226.617048 395.157715,221.940918 C394.882648,217.264788 394.332524,212.355983 393.507324,207.214355 C392.682125,202.072728 391.592455,197.407248 390.238281,193.217773 C387.445299,195.375987 384.292661,197.608224 380.780273,199.914551 C377.267886,202.220877 373.395854,204.442535 369.164062,206.57959 C364.932271,208.716645 360.615907,210.546867 356.214844,212.070312 L356.214844,212.070312 Z" id="NINJA"></path>
                    </g>
                    <path d="M28.7939453,31.9682617 C28.7939453,29.6046431 27.9270106,27.7155019 26.1931152,26.3007812 C24.4592198,24.8860606 21.4529836,23.5921283 17.1743164,22.4189453 C12.8783965,21.2630151 9.73414082,19.9475171 7.74145508,18.4724121 C5.74876933,16.9973071 4.75244141,14.8450662 4.75244141,12.015625 C4.75244141,9.20343646 5.92560676,6.96062035 8.27197266,5.28710938 C10.6183386,3.6135984 13.6116354,2.77685547 17.2519531,2.77685547 C20.9267762,2.77685547 23.9286993,3.80337515 26.2578125,5.85644531 C28.5869257,7.90951547 29.71696,10.5491375 29.6479492,13.7753906 L29.5961914,13.9306641 L28.4057617,13.9306641 C28.4057617,11.1184755 27.3706158,8.78939725 25.300293,6.94335938 C23.2299701,5.0973215 20.547217,4.17431641 17.2519531,4.17431641 C13.8359204,4.17431641 11.1316018,4.93773651 9.13891602,6.46459961 C7.14623027,7.99146271 6.14990234,9.82453357 6.14990234,11.9638672 C6.14990234,14.1032008 6.97370595,15.8802013 8.62133789,17.2949219 C10.2689698,18.7096425 13.2493274,19.96907 17.5625,21.0732422 C21.7376511,22.1774144 24.890533,23.5274172 27.0212402,25.123291 C29.1519475,26.7191649 30.2172852,28.9835465 30.2172852,31.9165039 C30.2172852,34.9012194 29.0009887,37.2518632 26.5683594,38.9685059 C24.13573,40.6851486 21.0906758,41.543457 17.4331055,41.543457 C13.6547663,41.543457 10.4026829,40.6592699 7.67675781,38.8908691 C4.95083272,37.1224684 3.6310217,34.3405138 3.71728516,30.5449219 L3.76904297,30.3896484 L4.93359375,30.3896484 C4.93359375,33.8056811 6.19302126,36.2857182 8.71191406,37.829834 C11.2308069,39.3739498 14.1378416,40.1459961 17.4331055,40.1459961 C20.745622,40.1459961 23.4671931,39.3868891 25.5979004,37.8686523 C27.7286077,36.3504156 28.7939453,34.3836384 28.7939453,31.9682617 L28.7939453,31.9682617 Z M54.6728516,35.8242188 C53.7067009,37.5149824 52.2661229,38.8908638 50.3510742,39.9519043 C48.4360256,41.0129448 46.1155735,41.543457 43.3896484,41.543457 C40.7844922,41.543457 38.740079,40.8317942 37.2563477,39.4084473 C35.7726163,37.9851003 35.0307617,36.0657673 35.0307617,33.6503906 C35.0307617,31.3040247 36.1392305,29.3372475 38.3562012,27.75 C40.5731719,26.1627525 43.3465003,25.3691406 46.6762695,25.3691406 L54.6728516,25.3691406 L54.6728516,21.2802734 C54.6728516,18.9511602 53.9266839,17.1353418 52.4343262,15.8327637 C50.9419684,14.5301855 48.8414849,13.8789062 46.1328125,13.8789062 C43.596667,13.8789062 41.556567,14.4913676 40.0124512,15.7163086 C38.4683354,16.9412496 37.6962891,18.5198471 37.6962891,20.4521484 L36.5317383,20.4003906 L36.4799805,20.2709961 C36.3764643,18.0971571 37.2218335,16.25546 39.0161133,14.7458496 C40.8103931,13.2362392 43.1826024,12.4814453 46.1328125,12.4814453 C49.1347806,12.4814453 51.5414948,13.2405523 53.3530273,14.7587891 C55.1645598,16.2770258 56.0703125,18.4680846 56.0703125,21.3320312 L56.0703125,35.3583984 C56.0703125,36.3418018 56.1263829,37.2993117 56.2385254,38.230957 C56.3506679,39.1626023 56.5361315,40.0856074 56.7949219,41 L55.2421875,41 C55.0179025,39.775059 54.8669437,38.856367 54.7893066,38.2438965 C54.7116695,37.631426 54.6728516,36.9715205 54.6728516,36.2641602 L54.6728516,35.8242188 Z M43.3896484,40.171875 C46.1673316,40.171875 48.5179754,39.5594137 50.4416504,38.3344727 C52.3653254,37.1095316 53.7757117,35.3584098 54.6728516,33.0810547 L54.6728516,26.7924805 L46.7539062,26.7924805 C43.8554543,26.7924805 41.4099221,27.4610122 39.4172363,28.7980957 C37.4245506,30.1351792 36.4282227,31.7870995 36.4282227,33.7539062 C36.4282227,35.6344495 37.0622495,37.174229 38.3303223,38.373291 C39.598395,39.572353 41.2848202,40.171875 43.3896484,40.171875 L43.3896484,40.171875 Z M72.4775391,35.9277344 L73.5126953,38.7226562 L73.6679688,38.7226562 L73.8232422,38.3085938 L83.5019531,12.9990234 L85.0546875,12.9990234 L72.6069336,45.6582031 C71.8478152,47.6250098 70.9636281,49.2251729 69.9543457,50.4587402 C68.9450633,51.6923076 67.3362741,52.309082 65.1279297,52.309082 C64.8001286,52.309082 64.4378275,52.2788903 64.0410156,52.2185059 C63.6442037,52.1581214 63.3509124,52.0934248 63.1611328,52.0244141 L63.394043,50.7045898 C63.5838226,50.7563479 63.8684877,50.8081052 64.2480469,50.8598633 C64.6276061,50.9116214 64.9208974,50.9375 65.1279297,50.9375 C66.7151772,50.9375 67.9530392,50.4716843 68.8415527,49.5400391 C69.7300663,48.6083938 70.519365,47.2281992 71.2094727,45.3994141 L72.8916016,40.8447266 L61.737793,12.9990234 L63.2646484,12.9990234 L72.4775391,35.9277344 Z M108.293945,26.6889648 L104.463867,26.6889648 L104.463867,41 L103.066406,41 L103.066406,0.62890625 L104.463867,0.62890625 L104.463867,25.2915039 L107.750488,25.2915039 L120.48291,12.9990234 L122.113281,12.9990234 L122.165039,13.1542969 L109.329102,25.7573242 L123.148438,40.8706055 L123.09668,41 L121.466309,41 L108.293945,26.6889648 Z M125.943359,26.4560547 C125.943359,22.3499144 127.077707,18.9943164 129.346436,16.3891602 C131.615164,13.7840039 134.561017,12.4814453 138.184082,12.4814453 C141.8244,12.4814453 144.778879,13.7840039 147.047607,16.3891602 C149.316336,18.9943164 150.450684,22.3499144 150.450684,26.4560547 L150.450684,27.5429688 C150.450684,31.6663618 149.316336,35.0305859 147.047607,37.6357422 C144.778879,40.2408984 141.841652,41.543457 138.23584,41.543457 C134.595522,41.543457 131.63673,40.2408984 129.359375,37.6357422 C127.08202,35.0305859 125.943359,31.6663618 125.943359,27.5429688 L125.943359,26.4560547 Z M127.34082,27.5429688 C127.34082,31.0625176 128.324209,34.0428752 130.291016,36.4841309 C132.257822,38.9253866 134.906071,40.1459961 138.23584,40.1459961 C141.513851,40.1459961 144.136221,38.9210734 146.103027,36.4711914 C148.069834,34.0213094 149.053223,31.0452649 149.053223,27.5429688 L149.053223,26.4560547 C149.053223,23.0227693 148.061208,20.0682904 146.077148,17.5925293 C144.093089,15.1167682 141.462093,13.8789062 138.184082,13.8789062 C134.888818,13.8789062 132.257822,15.1167682 130.291016,17.5925293 C128.324209,20.0682904 127.34082,23.0227693 127.34082,26.4560547 L127.34082,27.5429688 Z M158.34375,12.9990234 L158.524902,18.7700195 C159.370284,16.7687074 160.603833,15.2203017 162.225586,14.1247559 C163.847339,13.02921 165.848621,12.4814453 168.229492,12.4814453 C171.283218,12.4814453 173.573479,13.4432684 175.100342,15.3669434 C176.627205,17.2906183 177.390625,20.3399856 177.390625,24.5151367 L177.390625,41 L175.993164,41 L175.993164,24.4633789 C175.993164,20.5815236 175.298754,17.8470131 173.909912,16.2597656 C172.521071,14.6725181 170.636242,13.8789062 168.255371,13.8789062 C165.23615,13.8789062 162.958829,14.7803458 161.42334,16.583252 C159.88785,18.3861581 158.93034,20.6936708 158.550781,23.5058594 L158.550781,41 L157.15332,41 L157.15332,12.9990234 L158.34375,12.9990234 Z M187.405762,4.92480469 L185.594238,11.9379883 L184.300293,11.9379883 L186.008301,5.00244141 L186.008301,0.62890625 L187.405762,0.62890625 L187.405762,4.92480469 Z M195.635254,12.9990234 L195.816406,18.7700195 C196.661788,16.7687074 197.895337,15.2203017 199.51709,14.1247559 C201.138843,13.02921 203.140125,12.4814453 205.520996,12.4814453 C208.574722,12.4814453 210.864983,13.4432684 212.391846,15.3669434 C213.918709,17.2906183 214.682129,20.3399856 214.682129,24.5151367 L214.682129,41 L213.284668,41 L213.284668,24.4633789 C213.284668,20.5815236 212.590258,17.8470131 211.201416,16.2597656 C209.812574,14.6725181 207.927746,13.8789062 205.546875,13.8789062 C202.527654,13.8789062 200.250333,14.7803458 198.714844,16.583252 C197.179354,18.3861581 196.221844,20.6936708 195.842285,23.5058594 L195.842285,41 L194.444824,41 L194.444824,12.9990234 L195.635254,12.9990234 Z M225.188965,41 L223.791504,41 L223.791504,12.9990234 L225.188965,12.9990234 L225.188965,41 Z M225.188965,4.20019531 L223.791504,4.20019531 L223.791504,0.62890625 L225.188965,0.62890625 L225.188965,4.20019531 Z M243.873535,40.1459961 C246.237154,40.1459961 248.324698,39.4990299 250.13623,38.2050781 C251.947763,36.9111263 252.853516,34.9702278 252.853516,32.3823242 L254.043945,32.3823242 L254.095703,32.5375977 C254.164714,35.2807754 253.15976,37.4675211 251.080811,39.0979004 C249.001861,40.7282796 246.59946,41.543457 243.873535,41.543457 C240.302228,41.543457 237.503021,40.2581509 235.47583,37.6875 C233.448639,35.1168491 232.435059,31.7353725 232.435059,27.5429688 L232.435059,26.4560547 C232.435059,22.2809036 233.444326,18.9080532 235.462891,16.3374023 C237.481455,13.7667515 240.267723,12.4814453 243.821777,12.4814453 C246.720229,12.4814453 249.174388,13.3311276 251.184326,15.0305176 C253.194265,16.7299076 254.164714,19.1236825 254.095703,22.2119141 L254.043945,22.3671875 L252.853516,22.3671875 C252.853516,19.6240097 251.973642,17.5235262 250.213867,16.0656738 C248.454093,14.6078215 246.323417,13.8789062 243.821777,13.8789062 C240.543766,13.8789062 238.059416,15.0520716 236.368652,17.3984375 C234.677889,19.7448034 233.83252,22.7639789 233.83252,26.4560547 L233.83252,27.5429688 C233.83252,31.2695499 234.677889,34.3016647 236.368652,36.6394043 C238.059416,38.9771439 240.561019,40.1459961 243.873535,40.1459961 L243.873535,40.1459961 Z M262.661621,18.8994141 C263.524256,16.8635966 264.792309,15.2849991 266.46582,14.1635742 C268.139331,13.0421493 270.183744,12.4814453 272.599121,12.4814453 C275.514826,12.4814453 277.72745,13.4044504 279.237061,15.2504883 C280.746671,17.0965262 281.501465,20.0035609 281.501465,23.9716797 L281.501465,41 L280.078125,41 L280.078125,23.9199219 C280.078125,20.2450988 279.400967,17.652921 278.046631,16.1433105 C276.692295,14.6337001 274.885102,13.8789062 272.625,13.8789062 C269.605779,13.8789062 267.293953,14.7803458 265.689453,16.583252 C264.084953,18.3861581 263.075686,20.6936708 262.661621,23.5058594 L262.661621,41 L261.26416,41 L261.26416,0.62890625 L262.661621,0.62890625 L262.661621,18.8994141 Z M292.008301,41 L290.61084,41 L290.61084,12.9990234 L292.008301,12.9990234 L292.008301,41 Z M292.008301,4.20019531 L290.61084,4.20019531 L290.61084,0.62890625 L292.008301,0.62890625 L292.008301,4.20019531 Z M306.21582,32.8999023 L307.665039,38.6450195 L307.820312,38.6708984 L309.657715,32.8999023 L315.946289,12.9990234 L317.369629,12.9990234 L323.632324,32.8999023 L325.443848,38.6708984 L325.599121,38.6450195 L327.100098,32.8999023 L332.793457,12.9990234 L334.423828,12.9990234 L326.271973,41 L324.874512,41 L317.964844,19.9604492 L316.722656,15.2246094 L316.567383,15.2246094 L315.22168,19.9604492 L308.415527,41 L307.018066,41 L298.89209,12.9990234 L300.496582,12.9990234 L306.21582,32.8999023 Z M358.879395,35.8242188 C357.913244,37.5149824 356.472666,38.8908638 354.557617,39.9519043 C352.642569,41.0129448 350.322116,41.543457 347.596191,41.543457 C344.991035,41.543457 342.946622,40.8317942 341.462891,39.4084473 C339.979159,37.9851003 339.237305,36.0657673 339.237305,33.6503906 C339.237305,31.3040247 340.345773,29.3372475 342.562744,27.75 C344.779715,26.1627525 347.553043,25.3691406 350.882812,25.3691406 L358.879395,25.3691406 L358.879395,21.2802734 C358.879395,18.9511602 358.133227,17.1353418 356.640869,15.8327637 C355.148511,14.5301855 353.048028,13.8789062 350.339355,13.8789062 C347.80321,13.8789062 345.76311,14.4913676 344.218994,15.7163086 C342.674878,16.9412496 341.902832,18.5198471 341.902832,20.4521484 L340.738281,20.4003906 L340.686523,20.2709961 C340.583007,18.0971571 341.428376,16.25546 343.222656,14.7458496 C345.016936,13.2362392 347.389145,12.4814453 350.339355,12.4814453 C353.341324,12.4814453 355.748038,13.2405523 357.55957,14.7587891 C359.371103,16.2770258 360.276855,18.4680846 360.276855,21.3320312 L360.276855,35.3583984 C360.276855,36.3418018 360.332926,37.2993117 360.445068,38.230957 C360.557211,39.1626023 360.742674,40.0856074 361.001465,41 L359.44873,41 C359.224445,39.775059 359.073487,38.856367 358.99585,38.2438965 C358.918213,37.631426 358.879395,36.9715205 358.879395,36.2641602 L358.879395,35.8242188 Z M347.596191,40.171875 C350.373875,40.171875 352.724518,39.5594137 354.648193,38.3344727 C356.571868,37.1095316 357.982255,35.3584098 358.879395,33.0810547 L358.879395,26.7924805 L350.960449,26.7924805 C348.061997,26.7924805 345.616465,27.4610122 343.623779,28.7980957 C341.631094,30.1351792 340.634766,31.7870995 340.634766,33.7539062 C340.634766,35.6344495 341.268792,37.174229 342.536865,38.373291 C343.804938,39.572353 345.491363,40.171875 347.596191,40.171875 L347.596191,40.171875 Z M384.861816,5.44238281 L384.861816,12.9990234 L391.745605,12.9990234 L391.745605,14.4223633 L384.861816,14.4223633 L384.861816,33.7797852 C384.861816,36.074393 385.249996,37.7090609 386.026367,38.6838379 C386.802738,39.6586149 387.829258,40.1459961 389.105957,40.1459961 C389.57178,40.1459961 389.985838,40.1287437 390.348145,40.0942383 C390.710451,40.0597329 391.210772,39.9993494 391.849121,39.9130859 L392.10791,41.1811523 C391.676593,41.3191739 391.22803,41.4140622 390.762207,41.4658203 C390.296384,41.5175784 389.770185,41.543457 389.183594,41.543457 C387.30305,41.543457 385.875412,40.9309957 384.900635,39.7060547 C383.925858,38.4811137 383.438477,36.5057102 383.438477,33.7797852 L383.438477,14.4223633 L378.262695,14.4223633 L378.262695,12.9990234 L383.438477,12.9990234 L383.438477,5.44238281 L384.861816,5.44238281 Z M396.14502,26.4560547 C396.14502,22.3499144 397.279367,18.9943164 399.548096,16.3891602 C401.816824,13.7840039 404.762677,12.4814453 408.385742,12.4814453 C412.02606,12.4814453 414.980539,13.7840039 417.249268,16.3891602 C419.517996,18.9943164 420.652344,22.3499144 420.652344,26.4560547 L420.652344,27.5429688 C420.652344,31.6663618 419.517996,35.0305859 417.249268,37.6357422 C414.980539,40.2408984 412.043312,41.543457 408.4375,41.543457 C404.797182,41.543457 401.83839,40.2408984 399.561035,37.6357422 C397.28368,35.0305859 396.14502,31.6663618 396.14502,27.5429688 L396.14502,26.4560547 Z M397.54248,27.5429688 C397.54248,31.0625176 398.525869,34.0428752 400.492676,36.4841309 C402.459482,38.9253866 405.107731,40.1459961 408.4375,40.1459961 C411.715511,40.1459961 414.337881,38.9210734 416.304688,36.4711914 C418.271494,34.0213094 419.254883,31.0452649 419.254883,27.5429688 L419.254883,26.4560547 C419.254883,23.0227693 418.262868,20.0682904 416.278809,17.5925293 C414.294749,15.1167682 411.663753,13.8789062 408.385742,13.8789062 C405.090478,13.8789062 402.459482,15.1167682 400.492676,17.5925293 C398.525869,20.0682904 397.54248,23.0227693 397.54248,26.4560547 L397.54248,27.5429688 Z" id="Say-kon’nichiwa-to"></path>
                </g>
            </g>
        </g>
    </g>
</svg>