<?xml version="1.0" encoding="UTF-8" standalone="no"?>
<svg width="421px" height="495px" viewBox="0 0 421 495" version="1.1" xmlns="http://www.w3.org/2000/svg" xmlns:xlink="http://www.w3.org/1999/xlink" xmlns:sketch="http://www.bohemiancoding.com/sketch/ns">
    <!-- Generator: Sketch 3.3.3 (12081) - http://www.bohemiancoding.com/sketch -->
    <title>NINJA ICON</title>
    <desc>Created with Sketch.</desc>
    <defs></defs>
    <g id="User-actions" stroke="none" stroke-width="1" fill="none" fill-rule="evenodd" sketch:type="MSPage">
        <g id="Extra-Large" sketch:type="MSArtboardGroup" transform="translate(-736.000000, -1155.000000)">
            <g id="Say-hello-to..." sketch:type="MSLayerGroup" transform="translate(0.000000, 1080.000000)">
                <g id="NINJA-ICON" transform="translate(736.000000, 75.000000)" sketch:type="MSShapeGroup">
                    <path d="M322.921516,153.896875 L420.09341,56.670625 L390.941155,27.5 L322.921516,95.5625 L322.921516,0 L281.697493,0 L281.697493,47.50625 C254.132362,18.27375 215.093212,0 171.766764,0 C88.2881166,0 20.6120117,67.71875 20.6120117,151.25 L20.6120117,151.380625 L20.6120117,281.875 L0,281.875 L0,419.36125 L0,419.375 L267.956152,495 L343.533528,419.375 L343.533528,281.875 L322.921516,281.875 L322.921516,153.896875 L322.921516,153.896875 Z" id="Shape" fill="#3B3B3B"></path>
                    <path d="M172.685007,166.016857 L310.734987,213.392251 C310.734987,213.392251 218.574249,270.142289 176.270691,270.142289 C131.611071,270.142288 29.902582,216.891023 29.902582,216.891023 L172.685007,166.016857 Z" id="Ninja-face" fill="#7AB55C"></path>
                    <path d="M158.958332,232.797627 L71.4615826,200.735669 L64.8889291,218.6683 L99.9249426,223.932319 C97.5073255,226.123394 95.9603615,229.274036 95.9603615,232.797627 C95.9603615,239.440781 101.351414,244.829117 107.997918,244.829117 C114.648308,244.829117 120.039361,239.440781 120.039361,232.797627 C120.039361,230.559933 119.386371,228.48929 118.325263,226.690588 L158.958332,232.797627 L158.958332,232.797627 Z" id="Shape-Copy-2" fill="#3B3B3B"></path>
                    <path d="M245.249409,223.933492 L280.288793,218.668966 L273.715507,200.730726 L186.206453,232.799653 L226.851206,226.699797 C225.782221,228.498672 225.136942,230.565629 225.136942,232.799653 C225.136942,239.443446 230.528514,244.836186 237.175657,244.836186 C243.8228,244.836186 249.226033,239.443446 249.226033,232.799653 C249.206597,229.275723 247.671146,226.124778 245.249409,223.933492 L245.249409,223.933492 Z" id="Shape-Copy" fill="#3B3B3B"></path>
                </g>
            </g>
        </g>
    </g>
</svg>